solid Exported from Blender-4.0.2
facet normal -1.000000 0.000000 0.000000
outer loop
vertex 2.000001 1.000000 7.000003
vertex 2.000001 1.000000 1.000004
vertex 2.000001 -0.000000 1.000004
endloop
endfacet
facet normal -1.000000 0.000000 0.000000
outer loop
vertex 2.000001 1.000000 7.000003
vertex 2.000001 -0.000000 1.000004
vertex 2.000001 0.000000 7.000004
endloop
endfacet
facet normal 0.000000 -1.000000 0.000000
outer loop
vertex 4.000000 0.000000 6.000003
vertex 2.000001 0.000000 7.000004
vertex 2.000001 -0.000000 1.000004
endloop
endfacet
facet normal 0.000000 -1.000000 0.000000
outer loop
vertex 4.000000 0.000000 6.000003
vertex 2.000001 -0.000000 1.000004
vertex 4.000000 -0.000000 3.000003
endloop
endfacet
facet normal 0.000000 -1.000000 0.000000
outer loop
vertex 25.000000 -0.000000 1.000004
vertex 28.000000 -0.000000 1.000004
vertex 28.000000 0.000000 7.000004
endloop
endfacet
facet normal 0.000000 -1.000000 0.000000
outer loop
vertex 28.000000 0.000000 7.000004
vertex 2.000001 0.000000 7.000004
vertex 4.000000 0.000000 6.000003
endloop
endfacet
facet normal 0.000000 -1.000000 0.000000
outer loop
vertex 6.000000 0.000000 6.000003
vertex 8.000000 0.000000 6.000002
vertex 10.000000 0.000000 6.000002
endloop
endfacet
facet normal 0.000000 -1.000000 0.000000
outer loop
vertex 28.000000 0.000000 7.000004
vertex 4.000000 0.000000 6.000003
vertex 6.000000 0.000000 6.000003
endloop
endfacet
facet normal 0.000000 -1.000000 0.000000
outer loop
vertex 25.000000 -0.000000 5.000000
vertex 25.000000 -0.000000 1.000004
vertex 28.000000 0.000000 7.000004
endloop
endfacet
facet normal 0.000000 -1.000000 0.000000
outer loop
vertex 22.000000 -0.000000 5.000000
vertex 25.000000 -0.000000 5.000000
vertex 28.000000 0.000000 7.000004
endloop
endfacet
facet normal 0.000000 -1.000000 0.000000
outer loop
vertex 28.000000 0.000000 7.000004
vertex 6.000000 0.000000 6.000003
vertex 10.000000 0.000000 6.000002
endloop
endfacet
facet normal 0.000000 -1.000000 0.000000
outer loop
vertex 10.000000 0.000000 6.000002
vertex 12.000001 0.000000 6.000001
vertex 14.000001 0.000000 6.000001
endloop
endfacet
facet normal 0.000000 -1.000000 0.000000
outer loop
vertex 14.000001 0.000000 6.000001
vertex 16.000000 0.000000 6.000001
vertex 18.000000 0.000000 6.000001
endloop
endfacet
facet normal -0.000000 -1.000000 0.000000
outer loop
vertex 10.000000 0.000000 6.000002
vertex 14.000001 0.000000 6.000001
vertex 18.000000 0.000000 6.000001
endloop
endfacet
facet normal 0.000000 -1.000000 0.000000
outer loop
vertex 4.000000 -0.000000 3.000003
vertex 2.000001 -0.000000 1.000004
vertex 22.000000 -0.000000 1.000004
endloop
endfacet
facet normal 0.000000 -1.000000 0.000000
outer loop
vertex 8.000000 -0.000000 3.000002
vertex 6.000000 -0.000000 3.000003
vertex 4.000000 -0.000000 3.000003
endloop
endfacet
facet normal 0.000000 -1.000000 0.000000
outer loop
vertex 12.000001 -0.000000 3.000002
vertex 10.000000 -0.000000 3.000002
vertex 8.000000 -0.000000 3.000002
endloop
endfacet
facet normal 0.000000 -1.000000 0.000000
outer loop
vertex 16.000000 -0.000000 3.000001
vertex 14.000001 -0.000000 3.000002
vertex 12.000001 -0.000000 3.000002
endloop
endfacet
facet normal 0.000000 0.000000 0.000000
outer loop
vertex 16.000000 -0.000000 3.000001
vertex 12.000001 -0.000000 3.000002
vertex 8.000000 -0.000000 3.000002
endloop
endfacet
facet normal -0.000000 -1.000000 0.000000
outer loop
vertex 8.000000 -0.000000 3.000002
vertex 4.000000 -0.000000 3.000003
vertex 22.000000 -0.000000 1.000004
endloop
endfacet
facet normal 0.000000 -1.000000 0.000000
outer loop
vertex 16.000000 -0.000000 3.000001
vertex 8.000000 -0.000000 3.000002
vertex 22.000000 -0.000000 1.000004
endloop
endfacet
facet normal 0.000000 -1.000000 0.000000
outer loop
vertex 18.000000 -0.000000 3.000001
vertex 16.000000 -0.000000 3.000001
vertex 22.000000 -0.000000 1.000004
endloop
endfacet
facet normal 0.000000 -1.000000 0.000000
outer loop
vertex 18.000000 -0.000000 3.000001
vertex 22.000000 -0.000000 1.000004
vertex 22.000000 -0.000000 5.000000
endloop
endfacet
facet normal 0.000000 -1.000000 0.000000
outer loop
vertex 28.000000 0.000000 7.000004
vertex 10.000000 0.000000 6.000002
vertex 18.000000 0.000000 6.000001
endloop
endfacet
facet normal -0.000000 -1.000000 0.000000
outer loop
vertex 18.000000 0.000000 6.000001
vertex 18.000000 -0.000000 3.000001
vertex 22.000000 -0.000000 5.000000
endloop
endfacet
facet normal 0.000000 -1.000000 0.000000
outer loop
vertex 28.000000 0.000000 7.000004
vertex 18.000000 0.000000 6.000001
vertex 22.000000 -0.000000 5.000000
endloop
endfacet
facet normal -0.000000 -1.000000 0.000000
outer loop
vertex 14.000001 0.000000 6.000001
vertex 14.000001 -0.000000 3.000002
vertex 16.000000 -0.000000 3.000001
endloop
endfacet
facet normal 0.000000 -1.000000 0.000000
outer loop
vertex 14.000001 0.000000 6.000001
vertex 16.000000 -0.000000 3.000001
vertex 16.000000 0.000000 6.000001
endloop
endfacet
facet normal -0.000000 -1.000000 0.000000
outer loop
vertex 10.000000 0.000000 6.000002
vertex 10.000000 -0.000000 3.000002
vertex 12.000001 -0.000000 3.000002
endloop
endfacet
facet normal 0.000000 -1.000000 0.000000
outer loop
vertex 10.000000 0.000000 6.000002
vertex 12.000001 -0.000000 3.000002
vertex 12.000001 0.000000 6.000001
endloop
endfacet
facet normal -0.000000 -1.000000 0.000000
outer loop
vertex 6.000000 0.000000 6.000003
vertex 6.000000 -0.000000 3.000003
vertex 8.000000 -0.000000 3.000002
endloop
endfacet
facet normal 0.000000 -1.000000 0.000000
outer loop
vertex 6.000000 0.000000 6.000003
vertex 8.000000 -0.000000 3.000002
vertex 8.000000 0.000000 6.000002
endloop
endfacet
facet normal 1.000000 0.000000 0.000000
outer loop
vertex 28.000000 0.000000 7.000004
vertex 28.000000 -0.000000 1.000004
vertex 28.000000 1.000000 1.000004
endloop
endfacet
facet normal 1.000000 0.000000 0.000000
outer loop
vertex 28.000000 0.000000 7.000004
vertex 28.000000 1.000000 1.000004
vertex 28.000000 1.000000 7.000003
endloop
endfacet
facet normal 0.000000 1.000000 0.000000
outer loop
vertex 4.000000 1.000000 3.000003
vertex 2.000001 1.000000 1.000004
vertex 2.000001 1.000000 7.000003
endloop
endfacet
facet normal 0.000000 1.000000 0.000000
outer loop
vertex 4.000000 1.000000 3.000003
vertex 2.000001 1.000000 7.000003
vertex 4.000000 1.000000 6.000003
endloop
endfacet
facet normal 0.000000 1.000000 0.000000
outer loop
vertex 18.000000 1.000000 6.000001
vertex 16.000000 1.000000 6.000001
vertex 14.000001 1.000000 6.000001
endloop
endfacet
facet normal 0.000000 1.000000 0.000000
outer loop
vertex 14.000001 1.000000 6.000001
vertex 12.000001 1.000000 6.000001
vertex 10.000000 1.000000 6.000002
endloop
endfacet
facet normal 0.000000 1.000000 0.000000
outer loop
vertex 10.000000 1.000000 6.000002
vertex 8.000000 1.000000 6.000002
vertex 6.000000 1.000000 6.000003
endloop
endfacet
facet normal 0.000000 1.000000 0.000000
outer loop
vertex 6.000000 1.000000 6.000003
vertex 4.000000 1.000000 6.000003
vertex 2.000001 1.000000 7.000003
endloop
endfacet
facet normal 0.000000 1.000000 0.000000
outer loop
vertex 28.000000 1.000000 7.000003
vertex 28.000000 1.000000 1.000004
vertex 25.000000 1.000000 1.000004
endloop
endfacet
facet normal 0.000000 1.000000 0.000000
outer loop
vertex 28.000000 1.000000 7.000003
vertex 25.000000 1.000000 1.000004
vertex 25.000000 1.000000 5.000000
endloop
endfacet
facet normal 0.000000 1.000000 0.000000
outer loop
vertex 6.000000 1.000000 6.000003
vertex 2.000001 1.000000 7.000003
vertex 28.000000 1.000000 7.000003
endloop
endfacet
facet normal 0.000000 1.000000 0.000000
outer loop
vertex 18.000000 1.000000 6.000001
vertex 14.000001 1.000000 6.000001
vertex 10.000000 1.000000 6.000002
endloop
endfacet
facet normal 0.000000 1.000000 0.000000
outer loop
vertex 10.000000 1.000000 6.000002
vertex 6.000000 1.000000 6.000003
vertex 28.000000 1.000000 7.000003
endloop
endfacet
facet normal 0.000000 1.000000 0.000000
outer loop
vertex 28.000000 1.000000 7.000003
vertex 25.000000 1.000000 5.000000
vertex 22.000000 1.000000 5.000000
endloop
endfacet
facet normal 0.000000 1.000000 0.000000
outer loop
vertex 22.000000 1.000000 1.000004
vertex 2.000001 1.000000 1.000004
vertex 4.000000 1.000000 3.000003
endloop
endfacet
facet normal 0.000000 1.000000 0.000000
outer loop
vertex 4.000000 1.000000 3.000003
vertex 6.000000 1.000000 3.000003
vertex 8.000000 1.000000 3.000002
endloop
endfacet
facet normal 0.000000 1.000000 0.000000
outer loop
vertex 8.000000 1.000000 3.000002
vertex 10.000000 1.000000 3.000002
vertex 12.000001 1.000000 3.000002
endloop
endfacet
facet normal 0.000000 1.000000 0.000000
outer loop
vertex 12.000001 1.000000 3.000002
vertex 14.000001 1.000000 3.000002
vertex 16.000000 1.000000 3.000001
endloop
endfacet
facet normal 0.000000 0.000000 0.000000
outer loop
vertex 8.000000 1.000000 3.000002
vertex 12.000001 1.000000 3.000002
vertex 16.000000 1.000000 3.000001
endloop
endfacet
facet normal 0.000000 1.000000 0.000000
outer loop
vertex 22.000000 1.000000 1.000004
vertex 4.000000 1.000000 3.000003
vertex 8.000000 1.000000 3.000002
endloop
endfacet
facet normal 0.000000 1.000000 0.000000
outer loop
vertex 22.000000 1.000000 1.000004
vertex 8.000000 1.000000 3.000002
vertex 16.000000 1.000000 3.000001
endloop
endfacet
facet normal 0.000000 1.000000 0.000000
outer loop
vertex 22.000000 1.000000 1.000004
vertex 16.000000 1.000000 3.000001
vertex 18.000000 1.000000 3.000001
endloop
endfacet
facet normal 0.000000 1.000000 0.000000
outer loop
vertex 22.000000 1.000000 5.000000
vertex 22.000000 1.000000 1.000004
vertex 18.000000 1.000000 3.000001
endloop
endfacet
facet normal 0.000000 1.000000 0.000000
outer loop
vertex 18.000000 1.000000 6.000001
vertex 10.000000 1.000000 6.000002
vertex 28.000000 1.000000 7.000003
endloop
endfacet
facet normal 0.000000 1.000000 0.000000
outer loop
vertex 22.000000 1.000000 5.000000
vertex 18.000000 1.000000 3.000001
vertex 18.000000 1.000000 6.000001
endloop
endfacet
facet normal 0.000000 1.000000 0.000000
outer loop
vertex 18.000000 1.000000 6.000001
vertex 28.000000 1.000000 7.000003
vertex 22.000000 1.000000 5.000000
endloop
endfacet
facet normal 0.000000 1.000000 0.000000
outer loop
vertex 14.000001 1.000000 3.000002
vertex 14.000001 1.000000 6.000001
vertex 16.000000 1.000000 6.000001
endloop
endfacet
facet normal 0.000000 1.000000 0.000000
outer loop
vertex 14.000001 1.000000 3.000002
vertex 16.000000 1.000000 6.000001
vertex 16.000000 1.000000 3.000001
endloop
endfacet
facet normal 0.000000 1.000000 0.000000
outer loop
vertex 10.000000 1.000000 3.000002
vertex 10.000000 1.000000 6.000002
vertex 12.000001 1.000000 6.000001
endloop
endfacet
facet normal 0.000000 1.000000 0.000000
outer loop
vertex 10.000000 1.000000 3.000002
vertex 12.000001 1.000000 6.000001
vertex 12.000001 1.000000 3.000002
endloop
endfacet
facet normal 0.000000 1.000000 0.000000
outer loop
vertex 8.000000 1.000000 3.000002
vertex 6.000000 1.000000 3.000003
vertex 6.000000 1.000000 6.000003
endloop
endfacet
facet normal 0.000000 1.000000 0.000000
outer loop
vertex 8.000000 1.000000 3.000002
vertex 6.000000 1.000000 6.000003
vertex 8.000000 1.000000 6.000002
endloop
endfacet
facet normal 0.000000 0.000000 1.000000
outer loop
vertex 2.000001 0.000000 7.000004
vertex 28.000000 0.000000 7.000004
vertex 28.000000 1.000000 7.000003
endloop
endfacet
facet normal 0.000000 0.000000 1.000000
outer loop
vertex 2.000001 0.000000 7.000004
vertex 28.000000 1.000000 7.000003
vertex 2.000001 1.000000 7.000003
endloop
endfacet
facet normal 0.000000 0.000000 -1.000000
outer loop
vertex 2.000001 -0.000000 1.000004
vertex 2.000001 1.000000 1.000004
vertex 22.000000 1.000000 1.000004
endloop
endfacet
facet normal 0.000000 0.000000 -1.000000
outer loop
vertex 2.000001 -0.000000 1.000004
vertex 22.000000 1.000000 1.000004
vertex 22.000000 -0.000000 1.000004
endloop
endfacet
facet normal 0.000000 0.000000 -1.000000
outer loop
vertex 25.000000 1.000000 1.000004
vertex 28.000000 1.000000 1.000004
vertex 28.000000 -0.000000 1.000004
endloop
endfacet
facet normal 0.000000 0.000000 -1.000000
outer loop
vertex 25.000000 1.000000 1.000004
vertex 28.000000 -0.000000 1.000004
vertex 25.000000 -0.000000 1.000004
endloop
endfacet
facet normal 1.000000 0.000000 0.000000
outer loop
vertex 4.000000 0.000000 6.000003
vertex 4.000000 -0.000000 3.000003
vertex 4.000000 1.000000 3.000003
endloop
endfacet
facet normal 1.000000 0.000000 0.000000
outer loop
vertex 4.000000 0.000000 6.000003
vertex 4.000000 1.000000 3.000003
vertex 4.000000 1.000000 6.000003
endloop
endfacet
facet normal -1.000000 0.000000 0.000000
outer loop
vertex 6.000000 1.000000 3.000003
vertex 6.000000 -0.000000 3.000003
vertex 6.000000 0.000000 6.000003
endloop
endfacet
facet normal -1.000000 0.000000 0.000000
outer loop
vertex 6.000000 1.000000 3.000003
vertex 6.000000 0.000000 6.000003
vertex 6.000000 1.000000 6.000003
endloop
endfacet
facet normal 0.000000 0.000000 -1.000000
outer loop
vertex 6.000000 0.000000 6.000003
vertex 4.000000 0.000000 6.000003
vertex 4.000000 1.000000 6.000003
endloop
endfacet
facet normal 0.000000 0.000000 -1.000000
outer loop
vertex 6.000000 0.000000 6.000003
vertex 4.000000 1.000000 6.000003
vertex 6.000000 1.000000 6.000003
endloop
endfacet
facet normal 0.000000 0.000000 1.000000
outer loop
vertex 4.000000 1.000000 3.000003
vertex 4.000000 -0.000000 3.000003
vertex 6.000000 -0.000000 3.000003
endloop
endfacet
facet normal 0.000000 0.000000 1.000000
outer loop
vertex 4.000000 1.000000 3.000003
vertex 6.000000 -0.000000 3.000003
vertex 6.000000 1.000000 3.000003
endloop
endfacet
facet normal 1.000000 0.000000 0.000000
outer loop
vertex 8.000000 0.000000 6.000002
vertex 8.000000 -0.000000 3.000002
vertex 8.000000 1.000000 3.000002
endloop
endfacet
facet normal 1.000000 0.000000 0.000000
outer loop
vertex 8.000000 0.000000 6.000002
vertex 8.000000 1.000000 3.000002
vertex 8.000000 1.000000 6.000002
endloop
endfacet
facet normal -1.000000 0.000000 0.000000
outer loop
vertex 10.000000 0.000000 6.000002
vertex 10.000000 1.000000 6.000002
vertex 10.000000 1.000000 3.000002
endloop
endfacet
facet normal -1.000000 0.000000 0.000000
outer loop
vertex 10.000000 0.000000 6.000002
vertex 10.000000 1.000000 3.000002
vertex 10.000000 -0.000000 3.000002
endloop
endfacet
facet normal 0.000000 0.000000 -1.000000
outer loop
vertex 10.000000 0.000000 6.000002
vertex 8.000000 0.000000 6.000002
vertex 8.000000 1.000000 6.000002
endloop
endfacet
facet normal 0.000000 0.000000 -1.000000
outer loop
vertex 10.000000 0.000000 6.000002
vertex 8.000000 1.000000 6.000002
vertex 10.000000 1.000000 6.000002
endloop
endfacet
facet normal 0.000000 0.000000 1.000000
outer loop
vertex 8.000000 1.000000 3.000002
vertex 8.000000 -0.000000 3.000002
vertex 10.000000 -0.000000 3.000002
endloop
endfacet
facet normal 0.000000 0.000000 1.000000
outer loop
vertex 8.000000 1.000000 3.000002
vertex 10.000000 -0.000000 3.000002
vertex 10.000000 1.000000 3.000002
endloop
endfacet
facet normal 1.000000 0.000000 0.000000
outer loop
vertex 12.000001 0.000000 6.000001
vertex 12.000001 -0.000000 3.000002
vertex 12.000001 1.000000 3.000002
endloop
endfacet
facet normal 1.000000 0.000000 0.000000
outer loop
vertex 12.000001 0.000000 6.000001
vertex 12.000001 1.000000 3.000002
vertex 12.000001 1.000000 6.000001
endloop
endfacet
facet normal -1.000000 0.000000 0.000000
outer loop
vertex 14.000001 0.000000 6.000001
vertex 14.000001 1.000000 6.000001
vertex 14.000001 1.000000 3.000002
endloop
endfacet
facet normal -1.000000 0.000000 0.000000
outer loop
vertex 14.000001 0.000000 6.000001
vertex 14.000001 1.000000 3.000002
vertex 14.000001 -0.000000 3.000002
endloop
endfacet
facet normal 0.000000 0.000000 -1.000000
outer loop
vertex 14.000001 0.000000 6.000001
vertex 12.000001 0.000000 6.000001
vertex 12.000001 1.000000 6.000001
endloop
endfacet
facet normal 0.000000 0.000000 -1.000000
outer loop
vertex 14.000001 0.000000 6.000001
vertex 12.000001 1.000000 6.000001
vertex 14.000001 1.000000 6.000001
endloop
endfacet
facet normal 0.000000 0.000000 1.000000
outer loop
vertex 12.000001 1.000000 3.000002
vertex 12.000001 -0.000000 3.000002
vertex 14.000001 -0.000000 3.000002
endloop
endfacet
facet normal 0.000000 0.000000 1.000000
outer loop
vertex 12.000001 1.000000 3.000002
vertex 14.000001 -0.000000 3.000002
vertex 14.000001 1.000000 3.000002
endloop
endfacet
facet normal 1.000000 0.000000 0.000000
outer loop
vertex 16.000000 0.000000 6.000001
vertex 16.000000 -0.000000 3.000001
vertex 16.000000 1.000000 3.000001
endloop
endfacet
facet normal 1.000000 0.000000 0.000000
outer loop
vertex 16.000000 0.000000 6.000001
vertex 16.000000 1.000000 3.000001
vertex 16.000000 1.000000 6.000001
endloop
endfacet
facet normal -1.000000 0.000000 0.000000
outer loop
vertex 18.000000 1.000000 3.000001
vertex 18.000000 -0.000000 3.000001
vertex 18.000000 0.000000 6.000001
endloop
endfacet
facet normal -1.000000 0.000000 0.000000
outer loop
vertex 18.000000 1.000000 3.000001
vertex 18.000000 0.000000 6.000001
vertex 18.000000 1.000000 6.000001
endloop
endfacet
facet normal 0.000000 0.000000 -1.000000
outer loop
vertex 18.000000 0.000000 6.000001
vertex 16.000000 0.000000 6.000001
vertex 16.000000 1.000000 6.000001
endloop
endfacet
facet normal 0.000000 0.000000 -1.000000
outer loop
vertex 18.000000 0.000000 6.000001
vertex 16.000000 1.000000 6.000001
vertex 18.000000 1.000000 6.000001
endloop
endfacet
facet normal 0.000000 0.000000 1.000000
outer loop
vertex 16.000000 1.000000 3.000001
vertex 16.000000 -0.000000 3.000001
vertex 18.000000 -0.000000 3.000001
endloop
endfacet
facet normal 0.000000 0.000000 1.000000
outer loop
vertex 16.000000 1.000000 3.000001
vertex 18.000000 -0.000000 3.000001
vertex 18.000000 1.000000 3.000001
endloop
endfacet
facet normal 1.000000 -0.000001 0.000000
outer loop
vertex 22.000000 1.000000 1.000004
vertex 22.000000 1.000000 5.000000
vertex 22.000000 -0.000000 5.000000
endloop
endfacet
facet normal 1.000000 0.000000 0.000000
outer loop
vertex 22.000000 1.000000 1.000004
vertex 22.000000 -0.000000 5.000000
vertex 22.000000 -0.000000 1.000004
endloop
endfacet
facet normal -1.000000 0.000004 0.000000
outer loop
vertex 25.000000 -0.000000 5.000000
vertex 25.000000 1.000000 5.000000
vertex 25.000000 1.000000 1.000004
endloop
endfacet
facet normal -1.000000 0.000000 0.000000
outer loop
vertex 25.000000 -0.000000 5.000000
vertex 25.000000 1.000000 1.000004
vertex 25.000000 -0.000000 1.000004
endloop
endfacet
facet normal 0.000000 -0.000000 -1.000000
outer loop
vertex 25.000000 -0.000000 5.000000
vertex 22.000000 -0.000000 5.000000
vertex 22.000000 1.000000 5.000000
endloop
endfacet
facet normal 0.000000 -0.000000 -1.000000
outer loop
vertex 25.000000 -0.000000 5.000000
vertex 22.000000 1.000000 5.000000
vertex 25.000000 1.000000 5.000000
endloop
endfacet
facet normal -1.000000 0.000000 0.000000
outer loop
vertex 0.000001 20.000000 1.000000
vertex 0.000001 20.000000 0.000000
vertex 0.000001 -0.000001 0.000000
endloop
endfacet
facet normal -1.000000 0.000000 0.000000
outer loop
vertex 0.000001 20.000000 1.000000
vertex 0.000001 -0.000001 0.000000
vertex 0.000001 0.000001 1.000000
endloop
endfacet
facet normal 0.000000 -1.000000 0.000002
outer loop
vertex 0.000001 0.000001 1.000000
vertex 0.000001 -0.000001 0.000000
vertex 30.000000 -0.000001 0.000000
endloop
endfacet
facet normal 0.000000 -1.000000 0.000002
outer loop
vertex 0.000001 0.000001 1.000000
vertex 30.000000 -0.000001 0.000000
vertex 30.000000 0.000001 1.000000
endloop
endfacet
facet normal 1.000000 -0.000000 0.000000
outer loop
vertex 30.000000 0.000001 1.000000
vertex 30.000000 -0.000001 0.000000
vertex 30.000000 20.000000 0.000000
endloop
endfacet
facet normal 1.000000 0.000000 0.000000
outer loop
vertex 30.000000 0.000001 1.000000
vertex 30.000000 20.000000 0.000000
vertex 30.000000 20.000000 1.000000
endloop
endfacet
facet normal 0.000000 1.000000 0.000000
outer loop
vertex 30.000000 20.000000 1.000000
vertex 30.000000 20.000000 0.000000
vertex 0.000001 20.000000 0.000000
endloop
endfacet
facet normal 0.000000 1.000000 0.000000
outer loop
vertex 30.000000 20.000000 1.000000
vertex 0.000001 20.000000 0.000000
vertex 0.000001 20.000000 1.000000
endloop
endfacet
facet normal 0.000000 0.000000 1.000000
outer loop
vertex 0.000001 0.000001 1.000000
vertex 30.000000 0.000001 1.000000
vertex 30.000000 20.000000 1.000000
endloop
endfacet
facet normal 0.000000 0.000000 1.000000
outer loop
vertex 0.000001 0.000001 1.000000
vertex 30.000000 20.000000 1.000000
vertex 0.000001 20.000000 1.000000
endloop
endfacet
facet normal 0.000000 -0.000000 -1.000000
outer loop
vertex 30.000000 -0.000001 0.000000
vertex 0.000001 -0.000001 0.000000
vertex 0.000001 20.000000 0.000000
endloop
endfacet
facet normal 0.000000 -0.000000 -1.000000
outer loop
vertex 30.000000 -0.000001 0.000000
vertex 0.000001 20.000000 0.000000
vertex 30.000000 20.000000 0.000000
endloop
endfacet
facet normal -1.000000 0.000000 0.000000
outer loop
vertex 0.000000 18.000000 7.000000
vertex 0.000000 18.000000 1.000000
vertex 0.000000 1.999999 1.000000
endloop
endfacet
facet normal -1.000000 0.000000 0.000000
outer loop
vertex 0.000000 18.000000 7.000000
vertex 0.000000 1.999999 1.000000
vertex 0.000000 2.000000 7.000000
endloop
endfacet
facet normal 0.000000 -1.000000 0.000000
outer loop
vertex 0.000000 2.000000 7.000000
vertex 0.000000 1.999999 1.000000
vertex 1.000000 1.999999 1.000000
endloop
endfacet
facet normal 0.000000 -1.000000 0.000000
outer loop
vertex 0.000000 2.000000 7.000000
vertex 1.000000 1.999999 1.000000
vertex 1.000000 2.000000 7.000000
endloop
endfacet
facet normal 1.000000 0.000000 0.000000
outer loop
vertex 1.000000 2.000000 7.000000
vertex 1.000000 1.999999 1.000000
vertex 1.000000 18.000000 1.000000
endloop
endfacet
facet normal 1.000000 0.000000 0.000000
outer loop
vertex 1.000000 2.000000 7.000000
vertex 1.000000 18.000000 1.000000
vertex 1.000000 18.000000 7.000000
endloop
endfacet
facet normal 0.000000 1.000000 0.000000
outer loop
vertex 1.000000 18.000000 7.000000
vertex 1.000000 18.000000 1.000000
vertex 0.000000 18.000000 1.000000
endloop
endfacet
facet normal 0.000000 1.000000 0.000000
outer loop
vertex 1.000000 18.000000 7.000000
vertex 0.000000 18.000000 1.000000
vertex 0.000000 18.000000 7.000000
endloop
endfacet
facet normal 0.000000 0.000000 1.000000
outer loop
vertex 0.000000 2.000000 7.000000
vertex 1.000000 2.000000 7.000000
vertex 1.000000 18.000000 7.000000
endloop
endfacet
facet normal 0.000000 0.000000 1.000000
outer loop
vertex 0.000000 2.000000 7.000000
vertex 1.000000 18.000000 7.000000
vertex 0.000000 18.000000 7.000000
endloop
endfacet
facet normal 0.000000 -0.000000 -1.000000
outer loop
vertex 1.000000 1.999999 1.000000
vertex 0.000000 1.999999 1.000000
vertex 0.000000 18.000000 1.000000
endloop
endfacet
facet normal 0.000000 -0.000000 -1.000000
outer loop
vertex 1.000000 1.999999 1.000000
vertex 0.000000 18.000000 1.000000
vertex 1.000000 18.000000 1.000000
endloop
endfacet
facet normal -1.000000 -0.000000 0.000000
outer loop
vertex 2.000001 20.000000 7.000000
vertex 2.000001 20.000000 1.000000
vertex 2.000001 19.000000 1.000000
endloop
endfacet
facet normal -1.000000 0.000000 0.000000
outer loop
vertex 2.000001 20.000000 7.000000
vertex 2.000001 19.000000 1.000000
vertex 2.000001 19.000000 7.000000
endloop
endfacet
facet normal 0.000000 -1.000000 0.000000
outer loop
vertex 2.000001 19.000000 7.000000
vertex 2.000001 19.000000 1.000000
vertex 28.000000 19.000000 1.000000
endloop
endfacet
facet normal 0.000000 -1.000000 0.000000
outer loop
vertex 2.000001 19.000000 7.000000
vertex 28.000000 19.000000 1.000000
vertex 28.000000 19.000000 7.000000
endloop
endfacet
facet normal 1.000000 -0.000001 0.000000
outer loop
vertex 28.000000 19.000000 7.000000
vertex 28.000000 19.000000 1.000000
vertex 28.000000 20.000000 1.000000
endloop
endfacet
facet normal 1.000000 0.000000 0.000000
outer loop
vertex 28.000000 19.000000 7.000000
vertex 28.000000 20.000000 1.000000
vertex 28.000000 20.000000 7.000000
endloop
endfacet
facet normal 0.000000 1.000000 0.000000
outer loop
vertex 28.000000 20.000000 7.000000
vertex 28.000000 20.000000 1.000000
vertex 2.000001 20.000000 1.000000
endloop
endfacet
facet normal 0.000000 1.000000 0.000000
outer loop
vertex 28.000000 20.000000 7.000000
vertex 2.000001 20.000000 1.000000
vertex 2.000001 20.000000 7.000000
endloop
endfacet
facet normal 0.000000 0.000000 1.000000
outer loop
vertex 2.000001 19.000000 7.000000
vertex 28.000000 19.000000 7.000000
vertex 28.000000 20.000000 7.000000
endloop
endfacet
facet normal 0.000000 0.000000 1.000000
outer loop
vertex 2.000001 19.000000 7.000000
vertex 28.000000 20.000000 7.000000
vertex 2.000001 20.000000 7.000000
endloop
endfacet
facet normal 0.000000 -0.000000 -1.000000
outer loop
vertex 28.000000 19.000000 1.000000
vertex 2.000001 19.000000 1.000000
vertex 2.000001 20.000000 1.000000
endloop
endfacet
facet normal 0.000000 -0.000000 -1.000000
outer loop
vertex 28.000000 19.000000 1.000000
vertex 2.000001 20.000000 1.000000
vertex 28.000000 20.000000 1.000000
endloop
endfacet
facet normal -1.000000 0.000000 0.000000
outer loop
vertex 0.000000 18.000000 8.000000
vertex 0.000000 18.000000 7.000000
vertex 0.000000 1.999999 7.000000
endloop
endfacet
facet normal -1.000000 0.000000 0.000000
outer loop
vertex 0.000000 18.000000 8.000000
vertex 0.000000 1.999999 7.000000
vertex 0.000000 2.000000 8.000000
endloop
endfacet
facet normal 0.000000 -1.000000 0.000001
outer loop
vertex 0.000000 2.000000 8.000000
vertex 0.000000 1.999999 7.000000
vertex 2.000000 1.999999 7.000000
endloop
endfacet
facet normal 0.000000 -1.000000 0.000001
outer loop
vertex 0.000000 2.000000 8.000000
vertex 2.000000 1.999999 7.000000
vertex 2.000000 2.000000 8.000000
endloop
endfacet
facet normal 1.000000 0.000000 0.000000
outer loop
vertex 2.000000 2.000000 8.000000
vertex 2.000000 1.999999 7.000000
vertex 2.000000 18.000000 7.000000
endloop
endfacet
facet normal 1.000000 0.000000 0.000000
outer loop
vertex 2.000000 2.000000 8.000000
vertex 2.000000 18.000000 7.000000
vertex 2.000000 18.000000 8.000000
endloop
endfacet
facet normal 0.000000 1.000000 0.000000
outer loop
vertex 2.000000 18.000000 8.000000
vertex 2.000000 18.000000 7.000000
vertex 0.000000 18.000000 7.000000
endloop
endfacet
facet normal 0.000000 1.000000 0.000000
outer loop
vertex 2.000000 18.000000 8.000000
vertex 0.000000 18.000000 7.000000
vertex 0.000000 18.000000 8.000000
endloop
endfacet
facet normal 0.000000 0.000000 1.000000
outer loop
vertex 0.000000 2.000000 8.000000
vertex 2.000000 2.000000 8.000000
vertex 2.000000 18.000000 8.000000
endloop
endfacet
facet normal 0.000000 0.000000 1.000000
outer loop
vertex 0.000000 2.000000 8.000000
vertex 2.000000 18.000000 8.000000
vertex 0.000000 18.000000 8.000000
endloop
endfacet
facet normal 0.000000 0.000000 -1.000000
outer loop
vertex 2.000000 1.999999 7.000000
vertex 0.000000 1.999999 7.000000
vertex 0.000000 18.000000 7.000000
endloop
endfacet
facet normal 0.000000 0.000000 -1.000000
outer loop
vertex 2.000000 1.999999 7.000000
vertex 0.000000 18.000000 7.000000
vertex 2.000000 18.000000 7.000000
endloop
endfacet
facet normal -1.000000 0.000000 0.000000
outer loop
vertex 29.000000 18.000000 7.000000
vertex 29.000000 18.000000 1.000000
vertex 29.000000 1.999999 1.000000
endloop
endfacet
facet normal -1.000000 0.000000 0.000000
outer loop
vertex 29.000000 18.000000 7.000000
vertex 29.000000 1.999999 1.000000
vertex 29.000000 2.000000 7.000000
endloop
endfacet
facet normal 0.000000 -1.000000 0.000000
outer loop
vertex 29.000000 2.000000 7.000000
vertex 29.000000 1.999999 1.000000
vertex 30.000000 1.999999 1.000000
endloop
endfacet
facet normal 0.000000 -1.000000 0.000000
outer loop
vertex 29.000000 2.000000 7.000000
vertex 30.000000 1.999999 1.000000
vertex 30.000000 2.000000 7.000000
endloop
endfacet
facet normal 1.000000 -0.000000 0.000000
outer loop
vertex 30.000000 2.000000 7.000000
vertex 30.000000 1.999999 1.000000
vertex 30.000000 18.000000 1.000000
endloop
endfacet
facet normal 1.000000 0.000000 0.000000
outer loop
vertex 30.000000 2.000000 7.000000
vertex 30.000000 18.000000 1.000000
vertex 30.000000 18.000000 7.000000
endloop
endfacet
facet normal 0.000000 1.000000 0.000000
outer loop
vertex 30.000000 18.000000 7.000000
vertex 30.000000 18.000000 1.000000
vertex 29.000000 18.000000 1.000000
endloop
endfacet
facet normal 0.000000 1.000000 0.000000
outer loop
vertex 30.000000 18.000000 7.000000
vertex 29.000000 18.000000 1.000000
vertex 29.000000 18.000000 7.000000
endloop
endfacet
facet normal 0.000000 0.000000 1.000000
outer loop
vertex 29.000000 2.000000 7.000000
vertex 30.000000 2.000000 7.000000
vertex 30.000000 18.000000 7.000000
endloop
endfacet
facet normal 0.000000 0.000000 1.000000
outer loop
vertex 29.000000 2.000000 7.000000
vertex 30.000000 18.000000 7.000000
vertex 29.000000 18.000000 7.000000
endloop
endfacet
facet normal 0.000000 -0.000000 -1.000000
outer loop
vertex 30.000000 1.999999 1.000000
vertex 29.000000 1.999999 1.000000
vertex 29.000000 18.000000 1.000000
endloop
endfacet
facet normal 0.000000 -0.000000 -1.000000
outer loop
vertex 30.000000 1.999999 1.000000
vertex 29.000000 18.000000 1.000000
vertex 30.000000 18.000000 1.000000
endloop
endfacet
facet normal -1.000000 0.000000 0.000000
outer loop
vertex 0.000000 2.000000 8.000000
vertex 0.000000 2.000000 1.000000
vertex 0.000000 -0.000000 1.000000
endloop
endfacet
facet normal -1.000000 0.000000 0.000000
outer loop
vertex 0.000000 2.000000 8.000000
vertex 0.000000 -0.000000 1.000000
vertex 0.000000 0.000000 8.000000
endloop
endfacet
facet normal 0.000000 -1.000000 0.000000
outer loop
vertex 0.000000 0.000000 8.000000
vertex 0.000000 -0.000000 1.000000
vertex 2.000000 -0.000000 1.000000
endloop
endfacet
facet normal 0.000000 -1.000000 0.000000
outer loop
vertex 0.000000 0.000000 8.000000
vertex 2.000000 -0.000000 1.000000
vertex 2.000000 0.000000 8.000000
endloop
endfacet
facet normal 1.000000 0.000000 0.000000
outer loop
vertex 2.000000 0.000000 8.000000
vertex 2.000000 -0.000000 1.000000
vertex 2.000000 2.000000 1.000000
endloop
endfacet
facet normal 1.000000 0.000000 0.000000
outer loop
vertex 2.000000 0.000000 8.000000
vertex 2.000000 2.000000 1.000000
vertex 2.000000 2.000000 8.000000
endloop
endfacet
facet normal 0.000000 1.000000 0.000000
outer loop
vertex 2.000000 2.000000 8.000000
vertex 2.000000 2.000000 1.000000
vertex 0.000000 2.000000 1.000000
endloop
endfacet
facet normal 0.000000 1.000000 0.000000
outer loop
vertex 2.000000 2.000000 8.000000
vertex 0.000000 2.000000 1.000000
vertex 0.000000 2.000000 8.000000
endloop
endfacet
facet normal 0.000000 0.000000 1.000000
outer loop
vertex 0.000000 0.000000 8.000000
vertex 2.000000 0.000000 8.000000
vertex 2.000000 2.000000 8.000000
endloop
endfacet
facet normal 0.000000 0.000000 1.000000
outer loop
vertex 0.000000 0.000000 8.000000
vertex 2.000000 2.000000 8.000000
vertex 0.000000 2.000000 8.000000
endloop
endfacet
facet normal 0.000000 -0.000000 -1.000000
outer loop
vertex 2.000000 -0.000000 1.000000
vertex 0.000000 -0.000000 1.000000
vertex 0.000000 2.000000 1.000000
endloop
endfacet
facet normal 0.000000 -0.000000 -1.000000
outer loop
vertex 2.000000 -0.000000 1.000000
vertex 0.000000 2.000000 1.000000
vertex 2.000000 2.000000 1.000000
endloop
endfacet
facet normal -1.000000 0.000000 0.000000
outer loop
vertex 28.000000 2.000000 8.000000
vertex 28.000000 2.000000 1.000000
vertex 28.000000 -0.000000 1.000000
endloop
endfacet
facet normal -1.000000 0.000000 0.000000
outer loop
vertex 28.000000 2.000000 8.000000
vertex 28.000000 -0.000000 1.000000
vertex 28.000000 0.000000 8.000000
endloop
endfacet
facet normal 0.000000 -1.000000 0.000000
outer loop
vertex 28.000000 0.000000 8.000000
vertex 28.000000 -0.000000 1.000000
vertex 30.000000 -0.000000 1.000000
endloop
endfacet
facet normal 0.000000 -1.000000 0.000000
outer loop
vertex 28.000000 0.000000 8.000000
vertex 30.000000 -0.000000 1.000000
vertex 30.000000 0.000000 8.000000
endloop
endfacet
facet normal 1.000000 -0.000000 0.000000
outer loop
vertex 30.000000 0.000000 8.000000
vertex 30.000000 -0.000000 1.000000
vertex 30.000000 2.000000 1.000000
endloop
endfacet
facet normal 1.000000 0.000000 0.000000
outer loop
vertex 30.000000 0.000000 8.000000
vertex 30.000000 2.000000 1.000000
vertex 30.000000 2.000000 8.000000
endloop
endfacet
facet normal 0.000000 1.000000 0.000000
outer loop
vertex 30.000000 2.000000 8.000000
vertex 30.000000 2.000000 1.000000
vertex 28.000000 2.000000 1.000000
endloop
endfacet
facet normal 0.000000 1.000000 0.000000
outer loop
vertex 30.000000 2.000000 8.000000
vertex 28.000000 2.000000 1.000000
vertex 28.000000 2.000000 8.000000
endloop
endfacet
facet normal 0.000000 0.000000 1.000000
outer loop
vertex 28.000000 0.000000 8.000000
vertex 30.000000 0.000000 8.000000
vertex 30.000000 2.000000 8.000000
endloop
endfacet
facet normal 0.000000 0.000000 1.000000
outer loop
vertex 28.000000 0.000000 8.000000
vertex 30.000000 2.000000 8.000000
vertex 28.000000 2.000000 8.000000
endloop
endfacet
facet normal 0.000000 -0.000000 -1.000000
outer loop
vertex 30.000000 -0.000000 1.000000
vertex 28.000000 -0.000000 1.000000
vertex 28.000000 2.000000 1.000000
endloop
endfacet
facet normal 0.000000 -0.000000 -1.000000
outer loop
vertex 30.000000 -0.000000 1.000000
vertex 28.000000 2.000000 1.000000
vertex 30.000000 2.000000 1.000000
endloop
endfacet
facet normal -1.000000 0.000000 0.000000
outer loop
vertex 28.000000 20.000000 8.000000
vertex 28.000000 20.000000 1.000000
vertex 28.000000 18.000000 1.000000
endloop
endfacet
facet normal -1.000000 0.000000 0.000000
outer loop
vertex 28.000000 20.000000 8.000000
vertex 28.000000 18.000000 1.000000
vertex 28.000000 18.000000 8.000000
endloop
endfacet
facet normal 0.000000 -1.000000 0.000000
outer loop
vertex 28.000000 18.000000 8.000000
vertex 28.000000 18.000000 1.000000
vertex 30.000000 18.000000 1.000000
endloop
endfacet
facet normal 0.000000 -1.000000 0.000000
outer loop
vertex 28.000000 18.000000 8.000000
vertex 30.000000 18.000000 1.000000
vertex 30.000000 18.000000 8.000000
endloop
endfacet
facet normal 1.000000 -0.000000 0.000000
outer loop
vertex 30.000000 18.000000 8.000000
vertex 30.000000 18.000000 1.000000
vertex 30.000000 20.000000 1.000000
endloop
endfacet
facet normal 1.000000 0.000000 0.000000
outer loop
vertex 30.000000 18.000000 8.000000
vertex 30.000000 20.000000 1.000000
vertex 30.000000 20.000000 8.000000
endloop
endfacet
facet normal 0.000000 1.000000 0.000000
outer loop
vertex 30.000000 20.000000 8.000000
vertex 30.000000 20.000000 1.000000
vertex 28.000000 20.000000 1.000000
endloop
endfacet
facet normal 0.000000 1.000000 0.000000
outer loop
vertex 30.000000 20.000000 8.000000
vertex 28.000000 20.000000 1.000000
vertex 28.000000 20.000000 8.000000
endloop
endfacet
facet normal 0.000000 0.000000 1.000000
outer loop
vertex 28.000000 18.000000 8.000000
vertex 30.000000 18.000000 8.000000
vertex 30.000000 20.000000 8.000000
endloop
endfacet
facet normal 0.000000 0.000000 1.000000
outer loop
vertex 28.000000 18.000000 8.000000
vertex 30.000000 20.000000 8.000000
vertex 28.000000 20.000000 8.000000
endloop
endfacet
facet normal 0.000000 -0.000000 -1.000000
outer loop
vertex 30.000000 18.000000 1.000000
vertex 28.000000 18.000000 1.000000
vertex 28.000000 20.000000 1.000000
endloop
endfacet
facet normal 0.000000 -0.000000 -1.000000
outer loop
vertex 30.000000 18.000000 1.000000
vertex 28.000000 20.000000 1.000000
vertex 30.000000 20.000000 1.000000
endloop
endfacet
facet normal -1.000000 0.000000 0.000000
outer loop
vertex 0.000000 20.000000 8.000000
vertex 0.000000 20.000000 1.000000
vertex 0.000000 18.000000 1.000000
endloop
endfacet
facet normal -1.000000 0.000000 0.000000
outer loop
vertex 0.000000 20.000000 8.000000
vertex 0.000000 18.000000 1.000000
vertex 0.000000 18.000000 8.000000
endloop
endfacet
facet normal 0.000000 -1.000000 0.000000
outer loop
vertex 0.000000 18.000000 8.000000
vertex 0.000000 18.000000 1.000000
vertex 2.000000 18.000000 1.000000
endloop
endfacet
facet normal 0.000000 -1.000000 0.000000
outer loop
vertex 0.000000 18.000000 8.000000
vertex 2.000000 18.000000 1.000000
vertex 2.000000 18.000000 8.000000
endloop
endfacet
facet normal 1.000000 0.000000 0.000000
outer loop
vertex 2.000000 18.000000 8.000000
vertex 2.000000 18.000000 1.000000
vertex 2.000000 20.000000 1.000000
endloop
endfacet
facet normal 1.000000 0.000000 0.000000
outer loop
vertex 2.000000 18.000000 8.000000
vertex 2.000000 20.000000 1.000000
vertex 2.000000 20.000000 8.000000
endloop
endfacet
facet normal 0.000000 1.000000 0.000000
outer loop
vertex 2.000000 20.000000 8.000000
vertex 2.000000 20.000000 1.000000
vertex 0.000000 20.000000 1.000000
endloop
endfacet
facet normal 0.000000 1.000000 0.000000
outer loop
vertex 2.000000 20.000000 8.000000
vertex 0.000000 20.000000 1.000000
vertex 0.000000 20.000000 8.000000
endloop
endfacet
facet normal 0.000000 0.000000 1.000000
outer loop
vertex 0.000000 18.000000 8.000000
vertex 2.000000 18.000000 8.000000
vertex 2.000000 20.000000 8.000000
endloop
endfacet
facet normal 0.000000 0.000000 1.000000
outer loop
vertex 0.000000 18.000000 8.000000
vertex 2.000000 20.000000 8.000000
vertex 0.000000 20.000000 8.000000
endloop
endfacet
facet normal 0.000000 -0.000000 -1.000000
outer loop
vertex 2.000000 18.000000 1.000000
vertex 0.000000 18.000000 1.000000
vertex 0.000000 20.000000 1.000000
endloop
endfacet
facet normal 0.000000 -0.000000 -1.000000
outer loop
vertex 2.000000 18.000000 1.000000
vertex 0.000000 20.000000 1.000000
vertex 2.000000 20.000000 1.000000
endloop
endfacet
facet normal -1.000000 0.000000 0.000000
outer loop
vertex 4.000000 1.000000 6.000000
vertex 4.000000 1.000000 3.000000
vertex 4.000000 -0.000000 3.000000
endloop
endfacet
facet normal -1.000000 0.000000 0.000000
outer loop
vertex 4.000000 1.000000 6.000000
vertex 4.000000 -0.000000 3.000000
vertex 4.000000 0.000000 6.000000
endloop
endfacet
facet normal 0.000000 -1.000000 0.000000
outer loop
vertex 4.000000 0.000000 6.000000
vertex 4.000000 -0.000000 3.000000
vertex 6.000000 -0.000000 3.000000
endloop
endfacet
facet normal 0.000000 -1.000000 0.000000
outer loop
vertex 4.000000 0.000000 6.000000
vertex 6.000000 -0.000000 3.000000
vertex 6.000000 0.000000 6.000000
endloop
endfacet
facet normal 1.000000 -0.000000 0.000000
outer loop
vertex 6.000000 0.000000 6.000000
vertex 6.000000 -0.000000 3.000000
vertex 6.000000 1.000000 3.000000
endloop
endfacet
facet normal 1.000000 0.000000 0.000000
outer loop
vertex 6.000000 0.000000 6.000000
vertex 6.000000 1.000000 3.000000
vertex 6.000000 1.000000 6.000000
endloop
endfacet
facet normal 0.000000 1.000000 0.000000
outer loop
vertex 6.000000 1.000000 6.000000
vertex 6.000000 1.000000 3.000000
vertex 4.000000 1.000000 3.000000
endloop
endfacet
facet normal 0.000000 1.000000 0.000000
outer loop
vertex 6.000000 1.000000 6.000000
vertex 4.000000 1.000000 3.000000
vertex 4.000000 1.000000 6.000000
endloop
endfacet
facet normal 0.000000 0.000000 1.000000
outer loop
vertex 4.000000 0.000000 6.000000
vertex 6.000000 0.000000 6.000000
vertex 6.000000 1.000000 6.000000
endloop
endfacet
facet normal 0.000000 0.000000 1.000000
outer loop
vertex 4.000000 0.000000 6.000000
vertex 6.000000 1.000000 6.000000
vertex 4.000000 1.000000 6.000000
endloop
endfacet
facet normal 0.000000 -0.000000 -1.000000
outer loop
vertex 6.000000 -0.000000 3.000000
vertex 4.000000 -0.000000 3.000000
vertex 4.000000 1.000000 3.000000
endloop
endfacet
facet normal 0.000000 -0.000000 -1.000000
outer loop
vertex 6.000000 -0.000000 3.000000
vertex 4.000000 1.000000 3.000000
vertex 6.000000 1.000000 3.000000
endloop
endfacet
facet normal -1.000000 0.000000 0.000000
outer loop
vertex 2.000001 2.000000 8.000000
vertex 2.000001 2.000000 7.000000
vertex 2.000001 -0.000000 7.000000
endloop
endfacet
facet normal -1.000000 0.000000 0.000000
outer loop
vertex 2.000001 2.000000 8.000000
vertex 2.000001 -0.000000 7.000000
vertex 2.000001 0.000000 8.000000
endloop
endfacet
facet normal 0.000000 -1.000000 0.000000
outer loop
vertex 2.000001 0.000000 8.000000
vertex 2.000001 -0.000000 7.000000
vertex 28.000000 -0.000000 7.000000
endloop
endfacet
facet normal 0.000000 -1.000000 0.000000
outer loop
vertex 2.000001 0.000000 8.000000
vertex 28.000000 -0.000000 7.000000
vertex 28.000000 0.000000 8.000000
endloop
endfacet
facet normal 1.000000 0.000000 0.000000
outer loop
vertex 28.000000 0.000000 8.000000
vertex 28.000000 -0.000000 7.000000
vertex 28.000000 2.000000 7.000000
endloop
endfacet
facet normal 1.000000 0.000000 0.000000
outer loop
vertex 28.000000 0.000000 8.000000
vertex 28.000000 2.000000 7.000000
vertex 28.000000 2.000000 8.000000
endloop
endfacet
facet normal 0.000000 1.000000 0.000000
outer loop
vertex 28.000000 2.000000 8.000000
vertex 28.000000 2.000000 7.000000
vertex 2.000001 2.000000 7.000000
endloop
endfacet
facet normal 0.000000 1.000000 0.000000
outer loop
vertex 28.000000 2.000000 8.000000
vertex 2.000001 2.000000 7.000000
vertex 2.000001 2.000000 8.000000
endloop
endfacet
facet normal 0.000000 0.000000 1.000000
outer loop
vertex 2.000001 0.000000 8.000000
vertex 28.000000 0.000000 8.000000
vertex 28.000000 2.000000 8.000000
endloop
endfacet
facet normal 0.000000 0.000000 1.000000
outer loop
vertex 2.000001 0.000000 8.000000
vertex 28.000000 2.000000 8.000000
vertex 2.000001 2.000000 8.000000
endloop
endfacet
facet normal 0.000000 0.000000 -1.000000
outer loop
vertex 28.000000 -0.000000 7.000000
vertex 2.000001 -0.000000 7.000000
vertex 2.000001 2.000000 7.000000
endloop
endfacet
facet normal 0.000000 0.000000 -1.000000
outer loop
vertex 28.000000 -0.000000 7.000000
vertex 2.000001 2.000000 7.000000
vertex 28.000000 2.000000 7.000000
endloop
endfacet
facet normal -1.000000 0.000000 0.000000
outer loop
vertex 19.000000 18.000000 8.000000
vertex 19.000000 18.000000 7.000000
vertex 19.000000 1.999999 7.000000
endloop
endfacet
facet normal -1.000000 0.000000 0.000000
outer loop
vertex 19.000000 18.000000 8.000000
vertex 19.000000 1.999999 7.000000
vertex 19.000000 2.000000 8.000000
endloop
endfacet
facet normal 0.000000 -1.000000 0.000001
outer loop
vertex 19.000000 2.000000 8.000000
vertex 19.000000 1.999999 7.000000
vertex 21.000000 1.999999 7.000000
endloop
endfacet
facet normal 0.000000 -1.000000 0.000001
outer loop
vertex 19.000000 2.000000 8.000000
vertex 21.000000 1.999999 7.000000
vertex 21.000000 2.000000 8.000000
endloop
endfacet
facet normal 1.000000 0.000000 0.000000
outer loop
vertex 21.000000 2.000000 8.000000
vertex 21.000000 1.999999 7.000000
vertex 21.000000 18.000000 7.000000
endloop
endfacet
facet normal 1.000000 0.000000 0.000000
outer loop
vertex 21.000000 2.000000 8.000000
vertex 21.000000 18.000000 7.000000
vertex 21.000000 18.000000 8.000000
endloop
endfacet
facet normal 0.000000 1.000000 0.000000
outer loop
vertex 21.000000 18.000000 8.000000
vertex 21.000000 18.000000 7.000000
vertex 19.000000 18.000000 7.000000
endloop
endfacet
facet normal 0.000000 1.000000 0.000000
outer loop
vertex 21.000000 18.000000 8.000000
vertex 19.000000 18.000000 7.000000
vertex 19.000000 18.000000 8.000000
endloop
endfacet
facet normal 0.000000 0.000000 1.000000
outer loop
vertex 19.000000 2.000000 8.000000
vertex 21.000000 2.000000 8.000000
vertex 21.000000 18.000000 8.000000
endloop
endfacet
facet normal 0.000000 0.000000 1.000000
outer loop
vertex 19.000000 2.000000 8.000000
vertex 21.000000 18.000000 8.000000
vertex 19.000000 18.000000 8.000000
endloop
endfacet
facet normal 0.000000 0.000000 -1.000000
outer loop
vertex 21.000000 1.999999 7.000000
vertex 19.000000 1.999999 7.000000
vertex 19.000000 18.000000 7.000000
endloop
endfacet
facet normal 0.000000 0.000000 -1.000000
outer loop
vertex 21.000000 1.999999 7.000000
vertex 19.000000 18.000000 7.000000
vertex 21.000000 18.000000 7.000000
endloop
endfacet
facet normal -1.000000 0.000000 0.000000
outer loop
vertex 2.000001 20.000000 8.000000
vertex 2.000001 20.000000 7.000000
vertex 2.000001 18.000000 7.000000
endloop
endfacet
facet normal -1.000000 0.000000 0.000000
outer loop
vertex 2.000001 20.000000 8.000000
vertex 2.000001 18.000000 7.000000
vertex 2.000001 18.000000 8.000000
endloop
endfacet
facet normal 0.000000 -1.000000 0.000000
outer loop
vertex 2.000001 18.000000 8.000000
vertex 2.000001 18.000000 7.000000
vertex 28.000000 18.000000 7.000000
endloop
endfacet
facet normal 0.000000 -1.000000 0.000000
outer loop
vertex 2.000001 18.000000 8.000000
vertex 28.000000 18.000000 7.000000
vertex 28.000000 18.000000 8.000000
endloop
endfacet
facet normal 1.000000 0.000000 0.000000
outer loop
vertex 28.000000 18.000000 8.000000
vertex 28.000000 18.000000 7.000000
vertex 28.000000 20.000000 7.000000
endloop
endfacet
facet normal 1.000000 0.000000 0.000000
outer loop
vertex 28.000000 18.000000 8.000000
vertex 28.000000 20.000000 7.000000
vertex 28.000000 20.000000 8.000000
endloop
endfacet
facet normal 0.000000 1.000000 0.000000
outer loop
vertex 28.000000 20.000000 8.000000
vertex 28.000000 20.000000 7.000000
vertex 2.000001 20.000000 7.000000
endloop
endfacet
facet normal 0.000000 1.000000 0.000000
outer loop
vertex 28.000000 20.000000 8.000000
vertex 2.000001 20.000000 7.000000
vertex 2.000001 20.000000 8.000000
endloop
endfacet
facet normal 0.000000 0.000000 1.000000
outer loop
vertex 2.000001 18.000000 8.000000
vertex 28.000000 18.000000 8.000000
vertex 28.000000 20.000000 8.000000
endloop
endfacet
facet normal 0.000000 0.000000 1.000000
outer loop
vertex 2.000001 18.000000 8.000000
vertex 28.000000 20.000000 8.000000
vertex 2.000001 20.000000 8.000000
endloop
endfacet
facet normal 0.000000 0.000000 -1.000000
outer loop
vertex 28.000000 18.000000 7.000000
vertex 2.000001 18.000000 7.000000
vertex 2.000001 20.000000 7.000000
endloop
endfacet
facet normal 0.000000 0.000000 -1.000000
outer loop
vertex 28.000000 18.000000 7.000000
vertex 2.000001 20.000000 7.000000
vertex 28.000000 20.000000 7.000000
endloop
endfacet
facet normal -1.000000 0.000000 0.000000
outer loop
vertex 28.000000 18.000000 8.000000
vertex 28.000000 18.000000 7.000000
vertex 28.000000 1.999999 7.000000
endloop
endfacet
facet normal -1.000000 0.000000 0.000000
outer loop
vertex 28.000000 18.000000 8.000000
vertex 28.000000 1.999999 7.000000
vertex 28.000000 2.000000 8.000000
endloop
endfacet
facet normal 0.000000 -1.000000 0.000001
outer loop
vertex 28.000000 2.000000 8.000000
vertex 28.000000 1.999999 7.000000
vertex 30.000000 1.999999 7.000000
endloop
endfacet
facet normal 0.000000 -1.000000 0.000001
outer loop
vertex 28.000000 2.000000 8.000000
vertex 30.000000 1.999999 7.000000
vertex 30.000000 2.000000 8.000000
endloop
endfacet
facet normal 1.000000 0.000000 0.000000
outer loop
vertex 30.000000 2.000000 8.000000
vertex 30.000000 1.999999 7.000000
vertex 30.000000 18.000000 7.000000
endloop
endfacet
facet normal 1.000000 0.000000 0.000000
outer loop
vertex 30.000000 2.000000 8.000000
vertex 30.000000 18.000000 7.000000
vertex 30.000000 18.000000 8.000000
endloop
endfacet
facet normal 0.000000 1.000000 0.000000
outer loop
vertex 30.000000 18.000000 8.000000
vertex 30.000000 18.000000 7.000000
vertex 28.000000 18.000000 7.000000
endloop
endfacet
facet normal 0.000000 1.000000 0.000000
outer loop
vertex 30.000000 18.000000 8.000000
vertex 28.000000 18.000000 7.000000
vertex 28.000000 18.000000 8.000000
endloop
endfacet
facet normal 0.000000 0.000000 1.000000
outer loop
vertex 28.000000 2.000000 8.000000
vertex 30.000000 2.000000 8.000000
vertex 30.000000 18.000000 8.000000
endloop
endfacet
facet normal 0.000000 0.000000 1.000000
outer loop
vertex 28.000000 2.000000 8.000000
vertex 30.000000 18.000000 8.000000
vertex 28.000000 18.000000 8.000000
endloop
endfacet
facet normal 0.000000 0.000000 -1.000000
outer loop
vertex 30.000000 1.999999 7.000000
vertex 28.000000 1.999999 7.000000
vertex 28.000000 18.000000 7.000000
endloop
endfacet
facet normal 0.000000 0.000000 -1.000000
outer loop
vertex 30.000000 1.999999 7.000000
vertex 28.000000 18.000000 7.000000
vertex 30.000000 18.000000 7.000000
endloop
endfacet
facet normal -1.000000 0.000000 0.000000
outer loop
vertex 9.000000 18.000000 8.000000
vertex 9.000000 18.000000 7.000000
vertex 9.000000 1.999999 7.000000
endloop
endfacet
facet normal -1.000000 0.000000 0.000000
outer loop
vertex 9.000000 18.000000 8.000000
vertex 9.000000 1.999999 7.000000
vertex 9.000000 2.000000 8.000000
endloop
endfacet
facet normal 0.000000 -1.000000 0.000001
outer loop
vertex 9.000000 2.000000 8.000000
vertex 9.000000 1.999999 7.000000
vertex 11.000000 1.999999 7.000000
endloop
endfacet
facet normal 0.000000 -1.000000 0.000001
outer loop
vertex 9.000000 2.000000 8.000000
vertex 11.000000 1.999999 7.000000
vertex 11.000000 2.000000 8.000000
endloop
endfacet
facet normal 1.000000 0.000000 0.000000
outer loop
vertex 11.000000 2.000000 8.000000
vertex 11.000000 1.999999 7.000000
vertex 11.000000 18.000000 7.000000
endloop
endfacet
facet normal 1.000000 0.000000 0.000000
outer loop
vertex 11.000000 2.000000 8.000000
vertex 11.000000 18.000000 7.000000
vertex 11.000000 18.000000 8.000000
endloop
endfacet
facet normal 0.000000 1.000000 0.000000
outer loop
vertex 11.000000 18.000000 8.000000
vertex 11.000000 18.000000 7.000000
vertex 9.000000 18.000000 7.000000
endloop
endfacet
facet normal 0.000000 1.000000 0.000000
outer loop
vertex 11.000000 18.000000 8.000000
vertex 9.000000 18.000000 7.000000
vertex 9.000000 18.000000 8.000000
endloop
endfacet
facet normal 0.000000 0.000000 1.000000
outer loop
vertex 9.000000 2.000000 8.000000
vertex 11.000000 2.000000 8.000000
vertex 11.000000 18.000000 8.000000
endloop
endfacet
facet normal 0.000000 0.000000 1.000000
outer loop
vertex 9.000000 2.000000 8.000000
vertex 11.000000 18.000000 8.000000
vertex 9.000000 18.000000 8.000000
endloop
endfacet
facet normal 0.000000 0.000000 -1.000000
outer loop
vertex 11.000000 1.999999 7.000000
vertex 9.000000 1.999999 7.000000
vertex 9.000000 18.000000 7.000000
endloop
endfacet
facet normal 0.000000 0.000000 -1.000000
outer loop
vertex 11.000000 1.999999 7.000000
vertex 9.000000 18.000000 7.000000
vertex 11.000000 18.000000 7.000000
endloop
endfacet
facet normal -1.000000 -0.000000 0.000000
outer loop
vertex 19.000000 11.000000 7.000000
vertex 19.000000 11.000000 1.000000
vertex 19.000000 10.000000 1.000000
endloop
endfacet
facet normal -1.000000 0.000000 0.000000
outer loop
vertex 19.000000 11.000000 7.000000
vertex 19.000000 10.000000 1.000000
vertex 19.000000 10.000000 7.000000
endloop
endfacet
facet normal 0.000000 -1.000000 0.000000
outer loop
vertex 19.000000 10.000000 7.000000
vertex 19.000000 10.000000 1.000000
vertex 21.000000 10.000000 1.000000
endloop
endfacet
facet normal 0.000000 -1.000000 0.000000
outer loop
vertex 19.000000 10.000000 7.000000
vertex 21.000000 10.000000 1.000000
vertex 21.000000 10.000000 7.000000
endloop
endfacet
facet normal 1.000000 0.000001 0.000000
outer loop
vertex 21.000000 10.000000 7.000000
vertex 21.000000 10.000000 1.000000
vertex 21.000000 11.000000 1.000000
endloop
endfacet
facet normal 1.000000 0.000000 0.000000
outer loop
vertex 21.000000 10.000000 7.000000
vertex 21.000000 11.000000 1.000000
vertex 21.000000 11.000000 7.000000
endloop
endfacet
facet normal 0.000000 1.000000 0.000000
outer loop
vertex 21.000000 11.000000 7.000000
vertex 21.000000 11.000000 1.000000
vertex 19.000000 11.000000 1.000000
endloop
endfacet
facet normal 0.000000 1.000000 0.000000
outer loop
vertex 21.000000 11.000000 7.000000
vertex 19.000000 11.000000 1.000000
vertex 19.000000 11.000000 7.000000
endloop
endfacet
facet normal 0.000000 0.000000 1.000000
outer loop
vertex 19.000000 10.000000 7.000000
vertex 21.000000 10.000000 7.000000
vertex 21.000000 11.000000 7.000000
endloop
endfacet
facet normal 0.000000 0.000000 1.000000
outer loop
vertex 19.000000 10.000000 7.000000
vertex 21.000000 11.000000 7.000000
vertex 19.000000 11.000000 7.000000
endloop
endfacet
facet normal 0.000000 -0.000000 -1.000000
outer loop
vertex 21.000000 10.000000 1.000000
vertex 19.000000 10.000000 1.000000
vertex 19.000000 11.000000 1.000000
endloop
endfacet
facet normal 0.000000 -0.000000 -1.000000
outer loop
vertex 21.000000 10.000000 1.000000
vertex 19.000000 11.000000 1.000000
vertex 21.000000 11.000000 1.000000
endloop
endfacet
facet normal -1.000000 -0.000000 0.000000
outer loop
vertex 9.000000 11.000000 7.000000
vertex 9.000000 11.000000 1.000000
vertex 9.000000 10.000000 1.000000
endloop
endfacet
facet normal -1.000000 0.000000 0.000000
outer loop
vertex 9.000000 11.000000 7.000000
vertex 9.000000 10.000000 1.000000
vertex 9.000000 10.000000 7.000000
endloop
endfacet
facet normal 0.000000 -1.000000 0.000000
outer loop
vertex 9.000000 10.000000 7.000000
vertex 9.000000 10.000000 1.000000
vertex 11.000000 10.000000 1.000000
endloop
endfacet
facet normal 0.000000 -1.000000 0.000000
outer loop
vertex 9.000000 10.000000 7.000000
vertex 11.000000 10.000000 1.000000
vertex 11.000000 10.000000 7.000000
endloop
endfacet
facet normal 1.000000 -0.000001 0.000000
outer loop
vertex 11.000000 10.000000 7.000000
vertex 11.000000 10.000000 1.000000
vertex 11.000000 11.000000 1.000000
endloop
endfacet
facet normal 1.000000 0.000000 0.000000
outer loop
vertex 11.000000 10.000000 7.000000
vertex 11.000000 11.000000 1.000000
vertex 11.000000 11.000000 7.000000
endloop
endfacet
facet normal 0.000000 1.000000 0.000000
outer loop
vertex 11.000000 11.000000 7.000000
vertex 11.000000 11.000000 1.000000
vertex 9.000000 11.000000 1.000000
endloop
endfacet
facet normal 0.000000 1.000000 0.000000
outer loop
vertex 11.000000 11.000000 7.000000
vertex 9.000000 11.000000 1.000000
vertex 9.000000 11.000000 7.000000
endloop
endfacet
facet normal 0.000000 0.000000 1.000000
outer loop
vertex 9.000000 10.000000 7.000000
vertex 11.000000 10.000000 7.000000
vertex 11.000000 11.000000 7.000000
endloop
endfacet
facet normal 0.000000 0.000000 1.000000
outer loop
vertex 9.000000 10.000000 7.000000
vertex 11.000000 11.000000 7.000000
vertex 9.000000 11.000000 7.000000
endloop
endfacet
facet normal 0.000000 -0.000000 -1.000000
outer loop
vertex 11.000000 10.000000 1.000000
vertex 9.000000 10.000000 1.000000
vertex 9.000000 11.000000 1.000000
endloop
endfacet
facet normal 0.000000 -0.000000 -1.000000
outer loop
vertex 11.000000 10.000000 1.000000
vertex 9.000000 11.000000 1.000000
vertex 11.000000 11.000000 1.000000
endloop
endfacet
facet normal -1.000000 0.000000 0.000000
outer loop
vertex 8.000000 1.000000 6.000000
vertex 8.000000 1.000000 3.000000
vertex 8.000000 -0.000000 3.000000
endloop
endfacet
facet normal -1.000000 0.000000 0.000000
outer loop
vertex 8.000000 1.000000 6.000000
vertex 8.000000 -0.000000 3.000000
vertex 8.000000 0.000000 6.000000
endloop
endfacet
facet normal 0.000000 -1.000000 0.000000
outer loop
vertex 8.000000 0.000000 6.000000
vertex 8.000000 -0.000000 3.000000
vertex 10.000000 -0.000000 3.000000
endloop
endfacet
facet normal 0.000000 -1.000000 0.000000
outer loop
vertex 8.000000 0.000000 6.000000
vertex 10.000000 -0.000000 3.000000
vertex 10.000000 0.000000 6.000000
endloop
endfacet
facet normal 1.000000 0.000000 0.000000
outer loop
vertex 10.000000 0.000000 6.000000
vertex 10.000000 -0.000000 3.000000
vertex 10.000000 1.000000 3.000000
endloop
endfacet
facet normal 1.000000 0.000000 0.000000
outer loop
vertex 10.000000 0.000000 6.000000
vertex 10.000000 1.000000 3.000000
vertex 10.000000 1.000000 6.000000
endloop
endfacet
facet normal 0.000000 1.000000 0.000000
outer loop
vertex 10.000000 1.000000 6.000000
vertex 10.000000 1.000000 3.000000
vertex 8.000000 1.000000 3.000000
endloop
endfacet
facet normal 0.000000 1.000000 0.000000
outer loop
vertex 10.000000 1.000000 6.000000
vertex 8.000000 1.000000 3.000000
vertex 8.000000 1.000000 6.000000
endloop
endfacet
facet normal 0.000000 0.000000 1.000000
outer loop
vertex 8.000000 0.000000 6.000000
vertex 10.000000 0.000000 6.000000
vertex 10.000000 1.000000 6.000000
endloop
endfacet
facet normal 0.000000 0.000000 1.000000
outer loop
vertex 8.000000 0.000000 6.000000
vertex 10.000000 1.000000 6.000000
vertex 8.000000 1.000000 6.000000
endloop
endfacet
facet normal 0.000000 -0.000000 -1.000000
outer loop
vertex 10.000000 -0.000000 3.000000
vertex 8.000000 -0.000000 3.000000
vertex 8.000000 1.000000 3.000000
endloop
endfacet
facet normal 0.000000 -0.000000 -1.000000
outer loop
vertex 10.000000 -0.000000 3.000000
vertex 8.000000 1.000000 3.000000
vertex 10.000000 1.000000 3.000000
endloop
endfacet
facet normal -1.000000 0.000001 0.000000
outer loop
vertex 12.000000 1.000000 6.000000
vertex 12.000000 1.000000 3.000000
vertex 12.000000 -0.000000 3.000000
endloop
endfacet
facet normal -1.000000 0.000000 0.000000
outer loop
vertex 12.000000 1.000000 6.000000
vertex 12.000000 -0.000000 3.000000
vertex 12.000000 0.000000 6.000000
endloop
endfacet
facet normal 0.000000 -1.000000 0.000000
outer loop
vertex 12.000000 0.000000 6.000000
vertex 12.000000 -0.000000 3.000000
vertex 14.000000 -0.000000 3.000000
endloop
endfacet
facet normal 0.000000 -1.000000 0.000000
outer loop
vertex 12.000000 0.000000 6.000000
vertex 14.000000 -0.000000 3.000000
vertex 14.000000 0.000000 6.000000
endloop
endfacet
facet normal 1.000000 -0.000000 0.000000
outer loop
vertex 14.000000 0.000000 6.000000
vertex 14.000000 -0.000000 3.000000
vertex 14.000000 1.000000 3.000000
endloop
endfacet
facet normal 1.000000 0.000000 0.000000
outer loop
vertex 14.000000 0.000000 6.000000
vertex 14.000000 1.000000 3.000000
vertex 14.000000 1.000000 6.000000
endloop
endfacet
facet normal 0.000000 1.000000 0.000000
outer loop
vertex 14.000000 1.000000 6.000000
vertex 14.000000 1.000000 3.000000
vertex 12.000000 1.000000 3.000000
endloop
endfacet
facet normal 0.000000 1.000000 0.000000
outer loop
vertex 14.000000 1.000000 6.000000
vertex 12.000000 1.000000 3.000000
vertex 12.000000 1.000000 6.000000
endloop
endfacet
facet normal 0.000000 0.000000 1.000000
outer loop
vertex 12.000000 0.000000 6.000000
vertex 14.000000 0.000000 6.000000
vertex 14.000000 1.000000 6.000000
endloop
endfacet
facet normal 0.000000 0.000000 1.000000
outer loop
vertex 12.000000 0.000000 6.000000
vertex 14.000000 1.000000 6.000000
vertex 12.000000 1.000000 6.000000
endloop
endfacet
facet normal 0.000000 -0.000000 -1.000000
outer loop
vertex 14.000000 -0.000000 3.000000
vertex 12.000000 -0.000000 3.000000
vertex 12.000000 1.000000 3.000000
endloop
endfacet
facet normal 0.000000 -0.000000 -1.000000
outer loop
vertex 14.000000 -0.000000 3.000000
vertex 12.000000 1.000000 3.000000
vertex 14.000000 1.000000 3.000000
endloop
endfacet
facet normal -1.000000 0.000000 0.000000
outer loop
vertex 16.000000 1.000000 6.000000
vertex 16.000000 1.000000 3.000000
vertex 16.000000 -0.000000 3.000000
endloop
endfacet
facet normal -1.000000 0.000000 0.000000
outer loop
vertex 16.000000 1.000000 6.000000
vertex 16.000000 -0.000000 3.000000
vertex 16.000000 0.000000 6.000000
endloop
endfacet
facet normal 0.000000 -1.000000 0.000000
outer loop
vertex 16.000000 0.000000 6.000000
vertex 16.000000 -0.000000 3.000000
vertex 18.000000 -0.000000 3.000000
endloop
endfacet
facet normal 0.000000 -1.000000 0.000000
outer loop
vertex 16.000000 0.000000 6.000000
vertex 18.000000 -0.000000 3.000000
vertex 18.000000 0.000000 6.000000
endloop
endfacet
facet normal 1.000000 0.000000 0.000000
outer loop
vertex 18.000000 0.000000 6.000000
vertex 18.000000 -0.000000 3.000000
vertex 18.000000 1.000000 3.000000
endloop
endfacet
facet normal 1.000000 0.000000 0.000000
outer loop
vertex 18.000000 0.000000 6.000000
vertex 18.000000 1.000000 3.000000
vertex 18.000000 1.000000 6.000000
endloop
endfacet
facet normal 0.000000 1.000000 0.000000
outer loop
vertex 18.000000 1.000000 6.000000
vertex 18.000000 1.000000 3.000000
vertex 16.000000 1.000000 3.000000
endloop
endfacet
facet normal 0.000000 1.000000 0.000000
outer loop
vertex 18.000000 1.000000 6.000000
vertex 16.000000 1.000000 3.000000
vertex 16.000000 1.000000 6.000000
endloop
endfacet
facet normal 0.000000 0.000000 1.000000
outer loop
vertex 16.000000 0.000000 6.000000
vertex 18.000000 0.000000 6.000000
vertex 18.000000 1.000000 6.000000
endloop
endfacet
facet normal 0.000000 0.000000 1.000000
outer loop
vertex 16.000000 0.000000 6.000000
vertex 18.000000 1.000000 6.000000
vertex 16.000000 1.000000 6.000000
endloop
endfacet
facet normal 0.000000 -0.000000 -1.000000
outer loop
vertex 18.000000 -0.000000 3.000000
vertex 16.000000 -0.000000 3.000000
vertex 16.000000 1.000000 3.000000
endloop
endfacet
facet normal 0.000000 -0.000000 -1.000000
outer loop
vertex 18.000000 -0.000000 3.000000
vertex 16.000000 1.000000 3.000000
vertex 18.000000 1.000000 3.000000
endloop
endfacet
facet normal -1.000000 0.000001 0.000000
outer loop
vertex 22.000000 1.000000 5.000000
vertex 22.000000 1.000000 1.000000
vertex 22.000000 -0.000000 1.000000
endloop
endfacet
facet normal -1.000000 0.000000 0.000000
outer loop
vertex 22.000000 1.000000 5.000000
vertex 22.000000 -0.000000 1.000000
vertex 22.000000 0.000000 5.000000
endloop
endfacet
facet normal 0.000000 -1.000000 0.000000
outer loop
vertex 22.000000 0.000000 5.000000
vertex 22.000000 -0.000000 1.000000
vertex 25.000000 -0.000000 1.000000
endloop
endfacet
facet normal 0.000000 -1.000000 0.000000
outer loop
vertex 22.000000 0.000000 5.000000
vertex 25.000000 -0.000000 1.000000
vertex 25.000000 0.000000 5.000000
endloop
endfacet
facet normal 1.000000 -0.000001 0.000000
outer loop
vertex 25.000000 0.000000 5.000000
vertex 25.000000 -0.000000 1.000000
vertex 25.000000 1.000000 1.000000
endloop
endfacet
facet normal 1.000000 0.000000 0.000000
outer loop
vertex 25.000000 0.000000 5.000000
vertex 25.000000 1.000000 1.000000
vertex 25.000000 1.000000 5.000000
endloop
endfacet
facet normal 0.000000 1.000000 0.000000
outer loop
vertex 25.000000 1.000000 5.000000
vertex 25.000000 1.000000 1.000000
vertex 22.000000 1.000000 1.000000
endloop
endfacet
facet normal 0.000000 1.000000 0.000000
outer loop
vertex 25.000000 1.000000 5.000000
vertex 22.000000 1.000000 1.000000
vertex 22.000000 1.000000 5.000000
endloop
endfacet
facet normal 0.000000 0.000000 1.000000
outer loop
vertex 22.000000 0.000000 5.000000
vertex 25.000000 0.000000 5.000000
vertex 25.000000 1.000000 5.000000
endloop
endfacet
facet normal 0.000000 0.000000 1.000000
outer loop
vertex 22.000000 0.000000 5.000000
vertex 25.000000 1.000000 5.000000
vertex 22.000000 1.000000 5.000000
endloop
endfacet
facet normal 0.000000 -0.000000 -1.000000
outer loop
vertex 25.000000 -0.000000 1.000000
vertex 22.000000 -0.000000 1.000000
vertex 22.000000 1.000000 1.000000
endloop
endfacet
facet normal 0.000000 -0.000000 -1.000000
outer loop
vertex 25.000000 -0.000000 1.000000
vertex 22.000000 1.000000 1.000000
vertex 25.000000 1.000000 1.000000
endloop
endfacet
facet normal -1.000000 0.000000 0.000000
outer loop
vertex 0.000001 20.000000 9.000000
vertex 0.000001 20.000000 8.000000
vertex 0.000001 -0.000001 8.000000
endloop
endfacet
facet normal -1.000000 0.000000 0.000000
outer loop
vertex 0.000001 20.000000 9.000000
vertex 0.000001 -0.000001 8.000000
vertex 0.000001 0.000001 9.000000
endloop
endfacet
facet normal 0.000000 -1.000000 0.000002
outer loop
vertex 0.000001 0.000001 9.000000
vertex 0.000001 -0.000001 8.000000
vertex 30.000000 -0.000001 8.000000
endloop
endfacet
facet normal 0.000000 -1.000000 0.000002
outer loop
vertex 0.000001 0.000001 9.000000
vertex 30.000000 -0.000001 8.000000
vertex 30.000000 0.000001 9.000000
endloop
endfacet
facet normal 1.000000 0.000000 0.000000
outer loop
vertex 30.000000 0.000001 9.000000
vertex 30.000000 -0.000001 8.000000
vertex 30.000000 20.000000 8.000000
endloop
endfacet
facet normal 1.000000 0.000000 0.000000
outer loop
vertex 30.000000 0.000001 9.000000
vertex 30.000000 20.000000 8.000000
vertex 30.000000 20.000000 9.000000
endloop
endfacet
facet normal 0.000000 1.000000 0.000000
outer loop
vertex 30.000000 20.000000 9.000000
vertex 30.000000 20.000000 8.000000
vertex 0.000001 20.000000 8.000000
endloop
endfacet
facet normal 0.000000 1.000000 0.000000
outer loop
vertex 30.000000 20.000000 9.000000
vertex 0.000001 20.000000 8.000000
vertex 0.000001 20.000000 9.000000
endloop
endfacet
facet normal 0.000000 0.000000 1.000000
outer loop
vertex 0.000001 0.000001 9.000000
vertex 30.000000 0.000001 9.000000
vertex 30.000000 20.000000 9.000000
endloop
endfacet
facet normal 0.000000 0.000000 1.000000
outer loop
vertex 0.000001 0.000001 9.000000
vertex 30.000000 20.000000 9.000000
vertex 0.000001 20.000000 9.000000
endloop
endfacet
facet normal 0.000000 0.000000 -1.000000
outer loop
vertex 30.000000 -0.000001 8.000000
vertex 0.000001 -0.000001 8.000000
vertex 0.000001 20.000000 8.000000
endloop
endfacet
facet normal 0.000000 0.000000 -1.000000
outer loop
vertex 30.000000 -0.000001 8.000000
vertex 0.000001 20.000000 8.000000
vertex 30.000000 20.000000 8.000000
endloop
endfacet
facet normal -1.000000 -0.000000 0.000000
outer loop
vertex 20.000000 10.000000 7.000000
vertex 20.000000 10.000000 1.000000
vertex 20.000000 0.999999 1.000000
endloop
endfacet
facet normal -1.000000 0.000000 0.000000
outer loop
vertex 20.000000 10.000000 7.000000
vertex 20.000000 0.999999 1.000000
vertex 20.000000 1.000000 7.000000
endloop
endfacet
facet normal 0.000000 -1.000000 0.000000
outer loop
vertex 20.000000 1.000000 7.000000
vertex 20.000000 0.999999 1.000000
vertex 21.000000 0.999999 1.000000
endloop
endfacet
facet normal 0.000000 -1.000000 0.000000
outer loop
vertex 20.000000 1.000000 7.000000
vertex 21.000000 0.999999 1.000000
vertex 21.000000 1.000000 7.000000
endloop
endfacet
facet normal 1.000000 0.000000 0.000000
outer loop
vertex 21.000000 1.000000 7.000000
vertex 21.000000 0.999999 1.000000
vertex 21.000000 10.000000 1.000000
endloop
endfacet
facet normal 1.000000 0.000000 0.000000
outer loop
vertex 21.000000 1.000000 7.000000
vertex 21.000000 10.000000 1.000000
vertex 21.000000 10.000000 7.000000
endloop
endfacet
facet normal 0.000000 1.000000 0.000000
outer loop
vertex 21.000000 10.000000 7.000000
vertex 21.000000 10.000000 1.000000
vertex 20.000000 10.000000 1.000000
endloop
endfacet
facet normal 0.000000 1.000000 0.000000
outer loop
vertex 21.000000 10.000000 7.000000
vertex 20.000000 10.000000 1.000000
vertex 20.000000 10.000000 7.000000
endloop
endfacet
facet normal 0.000000 0.000000 1.000000
outer loop
vertex 20.000000 1.000000 7.000000
vertex 21.000000 1.000000 7.000000
vertex 21.000000 10.000000 7.000000
endloop
endfacet
facet normal 0.000000 0.000000 1.000000
outer loop
vertex 20.000000 1.000000 7.000000
vertex 21.000000 10.000000 7.000000
vertex 20.000000 10.000000 7.000000
endloop
endfacet
facet normal 0.000000 -0.000000 -1.000000
outer loop
vertex 21.000000 0.999999 1.000000
vertex 20.000000 0.999999 1.000000
vertex 20.000000 10.000000 1.000000
endloop
endfacet
facet normal 0.000000 -0.000000 -1.000000
outer loop
vertex 21.000000 0.999999 1.000000
vertex 20.000000 10.000000 1.000000
vertex 21.000000 10.000000 1.000000
endloop
endfacet
facet normal 0.500000 0.866025 0.000000
outer loop
vertex 10.000000 19.000000 1.000000
vertex 10.000000 19.000000 2.000000
vertex 16.928204 15.000000 2.000000
endloop
endfacet
facet normal 0.500000 0.866025 0.000000
outer loop
vertex 10.000000 19.000000 1.000000
vertex 16.928204 15.000000 2.000000
vertex 16.928204 15.000000 1.000000
endloop
endfacet
facet normal 1.000000 0.000000 0.000000
outer loop
vertex 16.928204 15.000000 1.000000
vertex 16.928204 15.000000 2.000000
vertex 16.928204 7.000000 2.000000
endloop
endfacet
facet normal 1.000000 0.000000 0.000000
outer loop
vertex 16.928204 15.000000 1.000000
vertex 16.928204 7.000000 2.000000
vertex 16.928204 7.000000 1.000000
endloop
endfacet
facet normal 0.500000 -0.866025 0.000000
outer loop
vertex 16.928204 7.000000 1.000000
vertex 16.928204 7.000000 2.000000
vertex 10.000000 3.000000 2.000000
endloop
endfacet
facet normal 0.500000 -0.866025 0.000000
outer loop
vertex 16.928204 7.000000 1.000000
vertex 10.000000 3.000000 2.000000
vertex 10.000000 3.000000 1.000000
endloop
endfacet
facet normal -0.500000 -0.866025 0.000000
outer loop
vertex 10.000000 3.000000 1.000000
vertex 10.000000 3.000000 2.000000
vertex 3.071797 7.000000 2.000000
endloop
endfacet
facet normal -0.500000 -0.866025 0.000000
outer loop
vertex 10.000000 3.000000 1.000000
vertex 3.071797 7.000000 2.000000
vertex 3.071797 7.000000 1.000000
endloop
endfacet
facet normal 0.000000 0.000000 1.000000
outer loop
vertex 16.928204 7.000000 2.000000
vertex 16.928204 15.000000 2.000000
vertex 10.000000 19.000000 2.000000
endloop
endfacet
facet normal 0.000000 0.000000 1.000000
outer loop
vertex 10.000000 19.000000 2.000000
vertex 3.071797 15.000000 2.000000
vertex 3.071797 7.000000 2.000000
endloop
endfacet
facet normal 0.000000 0.000000 1.000000
outer loop
vertex 3.071797 7.000000 2.000000
vertex 10.000000 3.000000 2.000000
vertex 16.928204 7.000000 2.000000
endloop
endfacet
facet normal 0.000000 0.000000 1.000000
outer loop
vertex 10.000000 19.000000 2.000000
vertex 3.071797 7.000000 2.000000
vertex 16.928204 7.000000 2.000000
endloop
endfacet
facet normal -1.000000 0.000000 0.000000
outer loop
vertex 3.071797 7.000000 1.000000
vertex 3.071797 7.000000 2.000000
vertex 3.071797 15.000000 2.000000
endloop
endfacet
facet normal -1.000000 0.000000 0.000000
outer loop
vertex 3.071797 7.000000 1.000000
vertex 3.071797 15.000000 2.000000
vertex 3.071797 15.000000 1.000000
endloop
endfacet
facet normal -0.500000 0.866025 0.000000
outer loop
vertex 3.071797 15.000000 1.000000
vertex 3.071797 15.000000 2.000000
vertex 10.000000 19.000000 2.000000
endloop
endfacet
facet normal -0.500000 0.866025 0.000000
outer loop
vertex 3.071797 15.000000 1.000000
vertex 10.000000 19.000000 2.000000
vertex 10.000000 19.000000 1.000000
endloop
endfacet
facet normal 0.000000 0.000000 -1.000000
outer loop
vertex 3.071797 15.000000 1.000000
vertex 10.000000 19.000000 1.000000
vertex 16.928204 15.000000 1.000000
endloop
endfacet
facet normal 0.000000 0.000000 -1.000000
outer loop
vertex 16.928204 15.000000 1.000000
vertex 16.928204 7.000000 1.000000
vertex 10.000000 3.000000 1.000000
endloop
endfacet
facet normal 0.000000 0.000000 -1.000000
outer loop
vertex 10.000000 3.000000 1.000000
vertex 3.071797 7.000000 1.000000
vertex 3.071797 15.000000 1.000000
endloop
endfacet
facet normal 0.000000 0.000000 -1.000000
outer loop
vertex 16.928204 15.000000 1.000000
vertex 10.000000 3.000000 1.000000
vertex 3.071797 15.000000 1.000000
endloop
endfacet
endsolid Exported from Blender-4.0.2
